<?xml version="1.0" encoding="UTF-8"?>
<svg version="1.1" xmlns="http://www.w3.org/2000/svg" width="512" height="512">
<path d="M0 0 C1.06771625 -0.01351448 2.1354325 -0.02702897 3.23550379 -0.04095298 C4.40766141 -0.03544069 5.57981902 -0.0299284 6.78749657 -0.02424908 C8.03342563 -0.03401687 9.27935469 -0.04378466 10.56303918 -0.05384845 C14.02384451 -0.07675872 17.48382881 -0.08165903 20.94465327 -0.07886279 C24.67630205 -0.08010233 28.40781436 -0.10420172 32.13939476 -0.12517071 C39.45216032 -0.16227508 46.76480604 -0.17696268 54.07765754 -0.18264524 C60.02333912 -0.18727777 65.96897939 -0.19785725 71.91464424 -0.21262455 C88.77365572 -0.2536154 105.63256642 -0.27667431 122.49162765 -0.27849964 C123.40075945 -0.27860254 124.30989125 -0.27870544 125.24657249 -0.27881145 C126.1568155 -0.27891024 127.06705851 -0.27900903 128.00488465 -0.27911081 C142.74823862 -0.28183865 157.49109956 -0.32797594 172.23429532 -0.39358608 C187.37440688 -0.46042593 202.51427579 -0.4935718 217.65453851 -0.49214667 C226.15386742 -0.49206739 234.65264163 -0.50601962 243.15183449 -0.55650043 C250.39072824 -0.59926464 257.62884377 -0.61082984 264.86782153 -0.58223406 C268.55968239 -0.56854953 272.25002712 -0.56920855 275.94172859 -0.60935116 C279.95036101 -0.65250762 283.95553072 -0.62544603 287.96425438 -0.59187603 C289.12302766 -0.61536312 290.28180095 -0.63885022 291.47568858 -0.66304904 C299.36061854 -0.51467398 303.17960919 1.66049106 308.69227833 7.27516192 C309.37357919 8.01507776 310.05488006 8.75499359 310.7568264 9.51733112 C311.86531029 10.59092828 312.97898145 11.65926887 314.10312462 12.71645832 C315.09666398 13.69546023 316.08790027 14.67680457 317.07689476 15.66039753 C317.90578712 16.4794331 317.90578712 16.4794331 318.75142479 17.31501484 C320.53594668 19.08020209 322.31675965 20.84905728 324.09667015 22.61889362 C325.02058146 23.53669165 325.02058146 23.53669165 325.96315765 24.47303104 C329.21150197 27.70070381 332.45669671 30.93150603 335.69945335 34.16479206 C339.03539185 37.48959032 342.38286716 40.80252471 345.73292255 44.11308956 C348.3244131 46.67842394 350.90696707 49.25261575 353.48720551 51.82926273 C354.71777593 53.05497977 355.95170709 54.27733285 357.18912125 55.49614048 C358.9165137 57.19912036 360.6307728 58.91436769 362.34251976 60.63305378 C362.84901558 61.12673954 363.3555114 61.6204253 363.87735558 62.12907124 C371.3674764 69.73002167 371.19387875 76.79222181 371.14500999 86.9606905 C371.14908003 88.31981038 371.15442433 89.67892695 371.16094017 91.0380373 C371.17456837 94.71367859 371.16933388 98.38906608 371.15980291 102.06471157 C371.1521829 105.91981511 371.15925841 109.77489759 371.16396141 113.63000202 C371.16941216 120.10273845 371.16224526 126.57537204 371.14793968 133.04809284 C371.13161443 140.52071325 371.13690342 147.99308807 371.1534189 155.46570253 C371.16705321 161.89309741 371.16894394 168.32041856 371.16110289 174.74782324 C371.15643704 178.58157118 371.15577145 182.41520385 371.16571236 186.24894428 C371.17440816 189.85402268 371.16831287 193.45878586 371.15102959 197.06383038 C371.14520089 199.01022508 371.15405796 200.95664658 371.16341209 202.90302753 C371.11817759 209.15430159 371.02368762 214.09087231 367.7568264 219.51733112 C363.7773377 222.04277587 361.74288333 222.66774659 357.0693264 221.95483112 C353.65068321 220.47126898 352.07683911 219.38506251 349.7568264 216.51733112 C349.26463509 213.96364689 349.26463509 213.96364689 349.27580833 211.02508259 C349.26756035 209.3508321 349.26756035 209.3508321 349.25914574 207.64275837 C349.28071739 205.8128838 349.28071739 205.8128838 349.30272484 203.94604206 C349.30214073 202.65798664 349.30155663 201.36993122 349.30095482 200.04284382 C349.29980727 196.51404413 349.32332237 192.98578844 349.35125065 189.45711517 C349.37625793 185.76825119 349.37860576 182.0793747 349.38335228 178.39043903 C349.39578409 171.40642323 349.42860829 164.42265792 349.46875024 157.43875241 C349.51346171 149.48721395 349.53545338 141.53566351 349.55553198 133.58403063 C349.5973409 117.22831749 349.66769672 100.87285628 349.7568264 84.51733112 C349.02877296 84.52843418 348.30071953 84.53953724 347.55060387 84.55097675 C340.67986513 84.65127975 333.80923622 84.72734719 326.937953 84.77639198 C323.40549795 84.80245501 319.87364927 84.83778978 316.3415432 84.89452839 C312.27808979 84.95939177 308.21527042 84.98353844 304.15135765 85.00561237 C302.8866111 85.0314188 301.62186455 85.05722523 300.31879234 85.08381367 C299.13794563 85.08419132 297.95709892 85.08456898 296.74046898 85.08495808 C295.70344337 85.09606113 294.66641777 85.10716419 293.59796715 85.11860371 C290.7568264 84.51733112 290.7568264 84.51733112 285.7568264 79.51733112 C285.7568264 60.04733112 285.7568264 40.57733112 285.7568264 20.51733112 C194.6768264 20.51733112 103.5968264 20.51733112 9.7568264 20.51733112 C9.7568264 123.47733112 9.7568264 226.43733112 9.7568264 332.51733112 C81.61870281 332.35901823 81.61870281 332.35901823 153.48045921 332.15697956 C167.39110374 332.13891315 167.39110374 332.13891315 173.90691185 332.13555622 C178.44979761 332.13183531 182.99249569 332.11686812 187.53532982 332.09502888 C193.33801581 332.06750442 199.14043058 332.05938274 204.94317579 332.06504202 C207.06775669 332.06385938 209.1923475 332.05597964 211.31687212 332.0404706 C228.45973968 331.92118568 242.83507411 334.01438562 255.9443264 346.14233112 C270.75317412 361.85050158 270.91595516 380.24532409 270.92479515 400.50170612 C270.92801609 402.24749496 270.93138077 403.99328354 270.93488121 405.73907185 C270.94084294 409.38684431 270.94272418 413.0345932 270.94212914 416.68237019 C270.94202771 421.31947656 270.95567295 425.95642915 270.97290134 430.59349918 C270.98410831 434.19696443 270.98604569 437.80039352 270.98551941 441.4038744 C270.98668673 443.11161802 270.9910369 444.81936298 270.99885178 446.52708912 C271.10701017 472.60244771 271.10701017 472.60244771 266.2568264 483.20483112 C265.8340139 484.15744831 265.4112014 485.1100655 264.9755764 486.09154987 C263.7568264 488.51733112 263.7568264 488.51733112 261.7568264 491.51733112 C290.7968264 491.84733112 319.8368264 492.17733112 349.7568264 492.51733112 C349.68721703 478.42658894 349.61760765 464.33584675 349.5458889 449.81811237 C349.51524347 440.90860061 349.48611272 431.99912688 349.46385765 423.08959675 C349.42822474 408.93785307 349.3862851 394.78632337 349.30418968 380.63476276 C349.24443423 370.32925118 349.20568825 360.02391282 349.19229543 349.71823281 C349.18446519 344.26006455 349.16603064 338.80239189 349.12244606 333.34438229 C349.08176619 328.20858746 349.0691481 323.07349308 349.07818031 317.93755245 C349.07652761 316.05130935 349.06456519 314.16504319 349.04159355 312.27893925 C349.01177754 309.70493645 349.01889952 307.13358462 349.0352993 304.55952168 C349.01782225 303.81146002 349.0003452 303.06339836 348.98233855 302.29266816 C349.03156824 299.43810443 349.20622059 297.18756461 351.0572021 294.93442857 C354.97884026 291.54796736 357.62879867 290.733531 362.63573265 291.02904987 C366.1712101 291.8429259 367.70275813 293.62879761 369.7568264 296.51733112 C370.9936836 300.85747094 370.89961977 305.23244689 370.89053917 309.70896626 C370.89280473 310.52979901 370.89507028 311.35063176 370.89740449 312.19633824 C370.90373047 314.94454487 370.90291603 317.69270201 370.90209007 320.44091511 C370.9050824 322.41218854 370.9084851 324.38346139 370.91226768 326.35473347 C370.92110349 331.70797844 370.9234456 337.06120743 370.92408347 342.41445899 C370.92503302 346.88276624 370.92871177 351.35106976 370.93225557 355.81937557 C370.94039822 366.36005343 370.94283994 376.90072275 370.94212914 387.44140339 C370.9415281 398.31761791 370.95208554 409.19378288 370.9678728 420.06998485 C370.98094307 429.40683489 370.98631326 438.74366872 370.98567373 448.08052784 C370.98541863 453.65750182 370.98827659 459.23443173 370.99885178 464.8113966 C371.00852431 470.05544608 371.00861772 475.2994093 371.00133514 480.5434618 C371.00028832 482.46795305 371.002658 484.39244966 371.0086956 486.31693172 C371.01640445 488.94429368 371.01177806 491.5713569 371.00406456 494.19871235 C371.00920812 494.95990531 371.01435169 495.72109827 371.01965111 496.50535768 C370.98450403 501.92420533 370.46933763 506.28291501 367.11731404 510.65650123 C363.8964648 513.19557512 361.83219422 513.01860199 357.75447655 513.02069569 C356.69180336 513.02941633 356.69180336 513.02941633 355.60766202 513.03831315 C353.22133191 513.05297172 350.836021 513.03900138 348.44969749 513.02526569 C346.72650086 513.02987238 345.00330816 513.03622372 343.28012371 513.04417467 C338.53496273 513.06092448 333.79012215 513.05259591 329.04495978 513.0402298 C323.93089258 513.03120413 318.81688167 513.04513704 313.70282555 513.05614948 C303.67821115 513.07396894 293.65371631 513.0700786 283.62909716 513.05849892 C275.47949438 513.0494743 267.32992517 513.0482364 259.18031883 513.05259418 C258.02144911 513.05320712 256.86257938 513.05382005 255.66859239 513.05445156 C253.31444429 513.05573044 250.9602962 513.0570273 248.60614812 513.05834192 C226.50985757 513.06975879 204.41363329 513.05661876 182.31735361 513.03514045 C163.36436464 513.01728737 144.41147373 513.02035669 125.45848656 513.0388155 C103.45497968 513.06023524 81.45153106 513.06864014 59.44801521 513.05636644 C57.09996352 513.05509225 54.75191181 513.05383477 52.40386009 513.05259418 C51.24856639 513.05197708 50.09327268 513.05135998 48.90297008 513.05072418 C40.76877172 513.04727319 32.63461034 513.05309464 24.50041771 513.0625124 C14.57878068 513.07374683 4.6572702 513.07066271 -5.26435238 513.04938942 C-10.32505349 513.03889559 -15.38554386 513.03472852 -20.44624329 513.04798603 C-25.08401861 513.05995141 -29.72138891 513.05327915 -34.35912776 513.03207582 C-36.03215409 513.02762705 -37.70521501 513.02983701 -39.37821889 513.03957897 C-55.54376066 513.12645016 -68.78395774 509.4785583 -80.9931736 498.32983112 C-92.39959399 486.10083234 -95.39866162 471.28267307 -95.38843727 455.17455769 C-95.39179588 454.39433247 -95.3951545 453.61410725 -95.39861488 452.81023884 C-95.40802642 450.25946123 -95.41006308 447.70874996 -95.41114235 445.15795612 C-95.41436194 443.36350192 -95.41772652 441.56904798 -95.42122841 439.77459431 C-95.42719537 436.02249259 -95.42907084 432.27041381 -95.42847633 428.51830769 C-95.4283749 423.74319249 -95.4420188 418.9682266 -95.45924854 414.19314671 C-95.47044339 410.4884955 -95.47239325 406.78387952 -95.47186661 403.07921314 C-95.47303579 401.3204036 -95.47739687 399.56159281 -95.48519897 397.80280018 C-95.56560224 377.80545517 -93.80206611 360.72863363 -79.4384861 345.61889362 C-69.52483074 336.19886426 -57.5435134 332.16919413 -44.15332985 332.32201862 C-42.7365419 332.32626347 -42.7365419 332.32626347 -41.29113197 332.33059406 C-38.29584636 332.34172429 -35.30086774 332.36681553 -32.3056736 332.39233112 C-30.2659644 332.40237018 -28.22625048 332.41149441 -26.18653297 332.41967487 C-21.2052962 332.44164016 -16.22428682 332.47612036 -11.2431736 332.51733112 C-11.24431276 331.49873526 -11.24431276 331.49873526 -11.24547493 330.45956171 C-11.29021585 290.22672404 -11.32453902 249.99388957 -11.34530426 209.76103207 C-11.34780572 204.93191426 -11.35039436 200.10279651 -11.35303688 195.27367878 C-11.3535615 194.31227469 -11.35408612 193.35087059 -11.35462664 192.36033304 C-11.36333297 176.78651637 -11.3791042 161.21271444 -11.39747919 145.63890652 C-11.41617189 129.66276315 -11.42728899 113.68662751 -11.43135059 97.71047366 C-11.43409695 87.8496636 -11.44277607 77.9888952 -11.45900653 68.12809797 C-11.46956564 61.36928287 -11.47277666 54.61048936 -11.47017635 47.85166661 C-11.46889339 43.95023135 -11.47088184 40.04886898 -11.48158455 36.14744663 C-11.4913112 32.57577767 -11.49181233 29.00423067 -11.48497139 25.43255611 C-11.48372517 23.52821731 -11.49235623 21.62387997 -11.50133622 19.71956193 C-11.49735412 18.58596227 -11.49337202 17.4523626 -11.48926926 16.28441143 C-11.49040842 14.82058956 -11.49040842 14.82058956 -11.49157059 13.32719553 C-11.10470696 8.95099782 -10.13463985 5.6792999 -7.44587195 2.17466432 C-4.74788407 0.14467012 -3.35214836 0.01220709 0 0 Z M306.7568264 37.51733112 C306.7568264 46.09733112 306.7568264 54.67733112 306.7568264 63.51733112 C315.3368264 63.51733112 323.9168264 63.51733112 332.7568264 63.51733112 C329.21849386 59.38927649 325.85810553 55.49146308 322.04979515 51.67748737 C321.21641624 50.8428194 320.38303734 50.00815144 319.52440453 49.1481905 C318.67297874 48.3006319 317.82155296 47.45307331 316.9443264 46.57983112 C316.07356468 45.70520222 315.20280296 44.83057331 314.30565453 43.9294405 C313.47872093 43.10379597 312.65178734 42.27815144 311.79979515 41.42748737 C310.67093895 40.30032307 310.67093895 40.30032307 309.51927757 39.15038776 C308.03502787 37.40405323 308.03502787 37.40405323 306.7568264 37.51733112 Z M-66.5556736 362.76733112 C-73.48897174 371.06009949 -74.395236 379.88787147 -74.38843727 390.49706745 C-74.39179588 391.26231236 -74.3951545 392.02755726 -74.39861488 392.8159914 C-74.40805573 395.32713191 -74.41006454 397.83820525 -74.41114235 400.34936237 C-74.41435977 402.10902146 -74.41772421 403.86868028 -74.42122841 405.62833881 C-74.42720257 409.31082498 -74.42907008 412.99328773 -74.42847633 416.67577839 C-74.42837483 421.37277747 -74.44202288 426.06962499 -74.45924854 430.76658821 C-74.47041819 434.39992163 -74.47239402 438.03321898 -74.47186661 441.6665678 C-74.47303941 443.39715503 -74.47742144 445.12774341 -74.48519897 446.85831356 C-74.90376859 465.9218258 -74.90376859 465.9218258 -66.52051735 482.42748737 C-56.69683378 491.62620499 -46.34034455 492.67101177 -33.44622231 492.65104389 C-31.8307476 492.65444223 -31.8307476 492.65444223 -30.18263704 492.65790921 C-26.57935116 492.6642316 -22.97610307 492.66342098 -19.37281227 492.6625948 C-16.7870523 492.66558737 -14.20129277 492.66899013 -11.61553383 492.67277241 C-5.32388143 492.68106502 0.9677616 492.68382662 7.259419 492.68438479 C12.37549125 492.68486059 17.49156041 492.68691857 22.60763168 492.69008541 C37.12472708 492.69888809 51.64181509 492.70350538 66.15891317 492.70275494 C67.33188584 492.702695 67.33188584 492.702695 68.52855492 492.70263386 C69.3114956 492.70259298 70.09443629 492.7025521 70.90110245 492.70250998 C83.58770596 492.70210359 96.27427979 492.71167238 108.96087471 492.72577222 C121.9992298 492.74014824 135.03757042 492.74704174 148.07593364 492.74617845 C155.39122153 492.74584691 162.70647829 492.74857513 170.02175903 492.7593565 C176.90246789 492.76943272 183.78311006 492.76911362 190.66382217 492.76183987 C193.18650598 492.76079458 195.70919388 492.76315356 198.23187065 492.76920033 C201.68096553 492.77693102 205.12983409 492.77226811 208.57892418 492.76456928 C210.06888483 492.77228463 210.06888483 492.77228463 211.58894569 492.78015584 C222.27063423 492.72762977 232.29420124 491.2890743 240.51073265 483.95092487 C248.34625298 475.48699189 249.90928168 465.75985738 249.90209007 454.5375948 C249.90544868 453.77234989 249.9088073 453.00710499 249.91226768 452.21867085 C249.92170854 449.70753033 249.92371734 447.19645699 249.92479515 444.68529987 C249.92801257 442.92564079 249.93137701 441.16598197 249.93488121 439.40632343 C249.94085537 435.72383727 249.94272288 432.04137452 249.94212914 428.35888386 C249.94202763 423.66188478 249.95567568 418.96503725 249.97290134 414.26807404 C249.98407099 410.63474062 249.98604682 407.00144327 249.98551941 403.36809444 C249.98669221 401.63750722 249.99107424 399.90691883 249.99885178 398.17634869 C250.39062628 378.92265446 250.39062628 378.92265446 241.77635765 362.34936237 C231.95706489 353.07089125 221.94566784 352.36350852 208.95987511 352.38361835 C207.88289197 352.3813528 206.80590883 352.37908724 205.69628984 352.37675303 C202.09300396 352.37043065 198.48975587 352.37124127 194.88646507 352.37206745 C192.3007051 352.36907487 189.71494557 352.36567211 187.12918663 352.36188984 C180.83753423 352.35359723 174.54589121 352.35083563 168.2542338 352.35027746 C163.13816155 352.34980165 158.02209239 352.34774368 152.90602112 352.34457684 C138.38892572 352.33577416 123.87183771 352.33115687 109.35473963 352.33190731 C108.18176697 352.33196724 108.18176697 352.33196724 106.98509789 352.33202839 C105.81068686 352.33208971 105.81068686 352.33208971 104.61255036 352.33215227 C91.92594684 352.33255866 79.23937302 352.32298986 66.55277809 352.30889002 C53.514423 352.294514 40.47608238 352.28762051 27.43771917 352.2884838 C20.12243127 352.28881534 12.80717451 352.28608712 5.49189377 352.27530575 C-1.38881509 352.26522953 -8.26945725 352.26554862 -15.15016937 352.27282238 C-17.67285317 352.27386766 -20.19554108 352.27150869 -22.71821785 352.26546192 C-26.16731273 352.25773123 -29.61618128 352.26239414 -33.06527138 352.27009296 C-34.05857848 352.2649494 -35.05188557 352.25980584 -36.07529289 352.25450641 C-47.81652919 352.31224269 -58.24161181 353.968661 -66.5556736 362.76733112 Z " fill="#FFFFFF" transform="translate(118.24317359924316,-0.5173311233520508)"/>
<path d="M0 0 C3.20270237 2.24321234 3.20270237 2.24321234 6.85546875 2.8203125 C9.42276225 0.78648098 9.42276225 0.78648098 11.85546875 -1.9921875 C16.15204622 -6.63589699 18.43199432 -8.94888041 24.79296875 -9.5546875 C28.90163426 -9.46270245 30.96368624 -8.15909978 33.85546875 -5.1796875 C35.49552414 -1.89957673 35.50833267 1.2886296 34.85546875 4.8203125 C31.91901269 10.26647323 27.29720358 14.59008885 22.85546875 18.8203125 C24.14525996 22.39541339 25.67942059 25.1200448 27.98046875 28.1328125 C38.47601605 42.93590734 44.32177026 59.43138695 45.97167969 77.46118164 C46.09716501 78.81723936 46.09716501 78.81723936 46.22518539 80.20069218 C47.1234941 90.75508306 47.14520826 101.29355462 47.12109375 111.87890625 C47.1224457 114.00928288 47.12439061 116.1396592 47.12689209 118.27003479 C47.12980885 122.6859945 47.12565207 127.10187222 47.11621094 131.51782227 C47.10471252 137.16991006 47.11146264 142.82181002 47.12335587 148.47389126 C47.13057888 152.85164308 47.1282863 157.22935018 47.12310028 161.60710335 C47.12177044 163.69266851 47.12338808 165.77823779 47.12805939 167.86379814 C47.1331434 170.76534745 47.12539267 173.66658886 47.11425781 176.56811523 C47.11830627 177.42057327 47.12235474 178.27303131 47.12652588 179.15132141 C47.08701 184.71522743 46.68963232 189.31851152 43.29035473 193.95512962 C39.88382152 196.56461831 36.78361771 196.37857909 32.66346741 196.3349762 C31.83053286 196.34192172 30.9975983 196.34886725 30.13942331 196.35602325 C27.34406119 196.37434229 24.54954306 196.36401545 21.75415039 196.35375977 C19.75183983 196.36081577 17.74953461 196.36955944 15.74723816 196.37986755 C10.30507702 196.40240721 4.86320608 196.39941106 -0.57898402 196.39054608 C-5.11942832 196.38544306 -9.65981776 196.3927232 -14.20025641 196.40001816 C-24.91016419 196.41703179 -35.61992954 196.41343663 -46.32983398 196.39672852 C-57.38510453 196.37980482 -68.4399803 196.39564202 -79.49520773 196.4279514 C-88.98151734 196.45462701 -98.46770391 196.46192879 -107.95404726 196.45343632 C-113.62217853 196.4485013 -119.2900722 196.45075388 -124.95817375 196.47122383 C-130.28773969 196.48954899 -135.61673673 196.48366075 -140.9462719 196.45902443 C-142.90342931 196.45400653 -144.86062982 196.45753159 -146.81775284 196.47017288 C-149.48767532 196.48605526 -152.15571343 196.47119895 -154.82554626 196.44850159 C-155.60200703 196.46033732 -156.3784678 196.47217304 -157.17845768 196.48436743 C-161.07721483 196.41692497 -162.97213084 195.9493893 -166.12520599 193.58867073 C-168.26687114 190.65259279 -168.77021736 189.46222546 -168.77272034 185.89839172 C-168.7853743 184.93307526 -168.79802826 183.96775879 -168.81106567 182.97319031 C-168.79937347 181.92540909 -168.78768127 180.87762787 -168.77563477 179.7980957 C-168.78279007 178.68511108 -168.78994537 177.57212646 -168.7973175 176.42541504 C-168.81424218 172.74022509 -168.7947617 169.0562464 -168.7734375 165.37109375 C-168.7742666 162.79819132 -168.77672754 160.22528895 -168.78074646 157.65238953 C-168.78360807 152.2494482 -168.76941377 146.84695197 -168.74145508 141.4440918 C-168.7096132 135.2440234 -168.70933586 129.04458607 -168.72666985 122.84447414 C-168.74269708 116.84245905 -168.73558397 110.8407312 -168.71873283 104.83870506 C-168.71359348 102.30532526 -168.71398046 99.77192737 -168.72027779 97.23855019 C-168.74716066 79.90455904 -168.0263461 63.19101316 -160.95703125 47.0703125 C-160.66731445 46.38622314 -160.37759766 45.70213379 -160.07910156 44.99731445 C-156.23201224 36.27273753 -150.92580088 28.37621237 -145.14453125 20.8203125 C-146.51988187 17.69327154 -148.09001915 15.70333129 -150.58203125 13.3828125 C-154.53562507 9.49511191 -157.24049103 6.53043805 -157.58203125 0.8203125 C-157.43635782 -3.23554251 -156.08187991 -5.32873145 -153.14453125 -8.1796875 C-149.92280728 -9.79054949 -146.63844556 -9.63284556 -143.14453125 -9.1796875 C-138.15404239 -6.68444307 -134.74784902 -2.80026581 -131.07421875 1.30859375 C-129.30963398 3.01360628 -129.30963398 3.01360628 -127.2890625 2.80859375 C-124.92218939 1.71784895 -122.82160906 0.36836895 -120.68066406 -1.11254883 C-84.7563406 -25.95935782 -35.54945958 -24.58999504 0 0 Z M-117.14453125 22.8203125 C-117.74652344 23.28953125 -118.34851563 23.75875 -118.96875 24.2421875 C-132.29524793 34.90338584 -140.2671054 50.80014955 -145.14453125 66.8203125 C-145.37914062 67.573125 -145.61375 68.3259375 -145.85546875 69.1015625 C-147.91654873 76.86795083 -147.67122594 84.77412221 -148.14453125 92.8203125 C-90.72453125 92.8203125 -33.30453125 92.8203125 25.85546875 92.8203125 C24.49140254 69.63118701 20.14278994 51.97438575 5.85546875 33.8203125 C5.04335938 32.78003906 5.04335938 32.78003906 4.21484375 31.71875 C-6.98524049 18.16350786 -22.56690346 9.86122281 -39.14453125 4.8203125 C-39.90894531 4.58570313 -40.67335938 4.35109375 -41.4609375 4.109375 C-67.93621495 -2.8234301 -96.61273098 5.48774738 -117.14453125 22.8203125 Z M-148.14453125 113.8203125 C-148.14453125 134.2803125 -148.14453125 154.7403125 -148.14453125 175.8203125 C-90.72453125 175.8203125 -33.30453125 175.8203125 25.85546875 175.8203125 C25.85546875 155.3603125 25.85546875 134.9003125 25.85546875 113.8203125 C-31.56453125 113.8203125 -88.98453125 113.8203125 -148.14453125 113.8203125 Z " fill="#FFFFFF" transform="translate(359.14453125,102.1796875)"/>
<path d="M0 0 C0.825 -0.01289063 1.65 -0.02578125 2.5 -0.0390625 C6.13586022 0.92671287 7.53585931 2.79752665 10 5.625 C11.50120203 8.22935807 12.66459444 10.94194077 13.828125 13.7109375 C14.17491302 14.50867081 14.52170105 15.30640411 14.8789978 16.12831116 C16.01436187 18.74733415 17.13263569 21.3732528 18.25 24 C19.03598612 25.82861952 19.82294652 27.65682056 20.61083984 29.48461914 C21.83277825 32.31976273 23.05372111 35.15529263 24.26998901 37.99287415 C27.09820324 44.58064922 30.00834235 51.12731848 32.9609375 57.66015625 C34.13814673 60.28452178 35.31355991 62.90968267 36.48815918 65.53521729 C37.23996877 67.2065466 37.99777376 68.87519324 38.76184082 70.54095459 C46.78491055 88.05883116 46.78491055 88.05883116 45 95.625 C43.125 98.75 43.125 98.75 40 100.625 C35.0291778 101.60286666 31.33533647 101.50575384 27.0625 98.6875 C25 95.625 25 95.625 22 86.625 C9.46 86.955 -3.08 87.285 -16 87.625 C-17.32 90.595 -18.64 93.565 -20 96.625 C-21.625 99.1875 -21.625 99.1875 -24 100.625 C-29.01282274 101.51011641 -32.72096492 101.39242105 -37.125 98.75 C-39.79334129 94.30276452 -39.57654874 90.71265885 -39 85.625 C-37.86369801 81.21044508 -36.29916863 76.99520525 -34.6875 72.734375 C-34.24035645 71.51333069 -33.79321289 70.29228638 -33.33251953 69.03424072 C-32.14632921 65.79549468 -30.94114421 62.56415562 -29.73150635 59.33410645 C-28.53241126 56.1227127 -27.35068455 52.90495409 -26.16796875 49.6875 C-24.32829997 44.68576166 -22.47279688 39.69022112 -20.609375 34.69726562 C-18.92244679 30.16040434 -17.28531177 25.61152721 -15.703125 21.03710938 C-15.34943848 20.02521545 -14.99575195 19.01332153 -14.63134766 17.97076416 C-13.98357704 16.10881652 -13.34691525 14.24294757 -12.72412109 12.37249756 C-10.4836725 5.97226811 -7.67209751 -0.11987652 0 0 Z M0 40.625 C-1.50255792 44.76991082 -3.00161845 48.91607778 -4.5 53.0625 C-4.92925781 54.24650391 -5.35851562 55.43050781 -5.80078125 56.65039062 C-6.20683594 57.77509766 -6.61289063 58.89980469 -7.03125 60.05859375 C-7.40830078 61.10072021 -7.78535156 62.14284668 -8.17382812 63.21655273 C-9.05407857 65.35828115 -9.05407857 65.35828115 -9 66.625 C-1.74 66.625 5.52 66.625 13 66.625 C7.66442758 53.554422 7.66442758 53.554422 2 40.625 C1.34 40.625 0.68 40.625 0 40.625 Z " fill="#FFFFFF" transform="translate(123,371.375)"/>
<path d="M0 0 C0.825 -0.01289063 1.65 -0.02578125 2.5 -0.0390625 C6.27814481 0.96450722 7.69076554 2.48556956 10 5.625 C10.72110592 8.73219262 10.78990498 11.75662397 10.8125 14.9375 C10.83763672 15.77345703 10.86277344 16.60941406 10.88867188 17.47070312 C10.9472699 19.52163409 10.97656493 21.57336593 11 23.625 C11.93066284 22.68648193 11.93066284 22.68648193 12.88012695 21.72900391 C15.18719147 19.40487881 17.49650473 17.08303595 19.80737305 14.76269531 C20.80632901 13.75871622 21.80438487 12.75384068 22.80151367 11.74804688 C24.23639993 10.30100662 25.67451134 8.85724009 27.11328125 7.4140625 C27.97735596 6.54475098 28.84143066 5.67543945 29.73168945 4.77978516 C33.12236751 1.55880523 35.2492643 0.30700989 39.875 0.1875 C43.54285835 0.28938495 44.88631005 0.55678603 48.125 2.5 C50.87835889 7.08893149 51.28519019 10.43510632 50 15.625 C48.38745117 17.88745117 48.38745117 17.88745117 46.23046875 20.16796875 C45.41610352 21.03365479 44.60173828 21.89934082 43.76269531 22.79125977 C38.69650372 27.98773253 33.58964428 33.13876413 28.4375 38.25 C27.32202917 39.36043961 26.20679339 40.47111538 25.09179688 41.58203125 C22.39722369 44.26574159 19.69952327 46.94626936 17 49.625 C18.29043532 52.46569803 19.6381079 54.5070815 21.85742188 56.69360352 C22.43141724 57.26422012 23.0054126 57.83483673 23.59680176 58.42274475 C24.52341614 59.32916969 24.52341614 59.32916969 25.46875 60.25390625 C26.10486206 60.88481674 26.74097412 61.51572723 27.3963623 62.16575623 C29.42621141 64.17781848 31.46262374 66.1830622 33.5 68.1875 C35.53649838 70.19636121 37.571515 72.20666774 39.6036377 74.21995544 C40.86740605 75.47148907 42.13383833 76.72033972 43.40319824 77.96620178 C43.9771936 78.53366623 44.55118896 79.10113068 45.14257812 79.68579102 C45.64728638 80.18224625 46.15199463 80.67870148 46.67199707 81.19020081 C50.30916483 85.11986486 50.50556436 88.04968299 50.36328125 93.171875 C50 95.625 50 95.625 48.125 98.75 C44.40198097 100.98381142 41.97788282 101.59579636 37.6640625 101.34765625 C32.19512412 99.86414657 28.8084033 95.6126862 25 91.625 C23.83019977 90.45754405 22.65682964 89.29365746 21.48046875 88.1328125 C18.29691424 84.98616131 15.14290161 81.81223721 12 78.625 C11.91363281 79.79417969 11.82726562 80.96335937 11.73828125 82.16796875 C11.59752814 83.71625301 11.45553555 85.26442493 11.3125 86.8125 C11.25900391 87.58142578 11.20550781 88.35035156 11.15039062 89.14257812 C10.74501918 93.24916714 10.27687909 95.25757525 7.73046875 98.63671875 C4.82394049 100.75320357 3.54239674 101.30534995 0 101.25 C-1.2375 101.26933594 -1.2375 101.26933594 -2.5 101.2890625 C-6.21521731 100.3022079 -7.62070357 98.62420784 -10 95.625 C-10.72238332 92.70552644 -10.68414638 89.871091 -10.64697266 86.875 C-10.65573425 86.00447998 -10.66449585 85.13395996 -10.67352295 84.23706055 C-10.69548995 81.36586335 -10.68097399 78.49621224 -10.6640625 75.625 C-10.66743141 73.62629908 -10.67228466 71.62760016 -10.67855835 69.62890625 C-10.68592602 65.44250968 -10.67522741 61.25664696 -10.65185547 57.0703125 C-10.62336794 51.70651761 -10.63977245 46.34397361 -10.66971779 40.98022461 C-10.6877935 36.85374542 -10.68203144 32.72756237 -10.66907883 28.60107422 C-10.66574558 26.62353365 -10.66982903 24.64596611 -10.68147659 22.66845703 C-10.69418974 19.90324797 -10.67480238 17.14005875 -10.64697266 14.375 C-10.66215439 13.15139771 -10.66215439 13.15139771 -10.67764282 11.90307617 C-10.59834174 7.64574112 -10.35823887 6.07657585 -7.61581421 2.61962891 C-4.77429939 0.45289719 -3.5237761 -0.055059 0 0 Z " fill="#FFFFFF" transform="translate(282,371.375)"/>
<path d="M0 0 C1.18070068 -0.01285538 1.18070068 -0.01285538 2.38525391 -0.02597046 C4.05285814 -0.03744575 5.72056247 -0.03846566 7.38818359 -0.02978516 C9.90253175 -0.02352457 12.41202588 -0.07015596 14.92578125 -0.12109375 C25.62794489 -0.20511538 34.51933433 0.96214692 42.91943359 8.34301758 C44.51757279 9.99692973 45.71730615 11.65410079 46.9375 13.6015625 C47.34742188 14.22289062 47.75734375 14.84421875 48.1796875 15.484375 C52.02776139 22.46398488 52.18804524 30.86201295 50.9375 38.6015625 C48.2130651 47.19845425 43.77576955 53.22939462 36.01513672 57.71191406 C29.71902261 60.82238018 24.31635345 61.09044429 17.375 60.8515625 C16.36630859 60.83351563 15.35761719 60.81546875 14.31835938 60.796875 C11.85704395 60.75021499 9.39780429 60.6847782 6.9375 60.6015625 C6.96368408 61.63563232 6.98986816 62.66970215 7.0168457 63.73510742 C7.10756423 67.58335609 7.16482659 71.4315109 7.2121582 75.28051758 C7.23725347 76.94409089 7.27133796 78.60755446 7.31469727 80.27075195 C7.3755746 82.66645403 7.40375769 85.06069501 7.42578125 87.45703125 C7.45158768 88.1968071 7.4773941 88.93658295 7.50398254 89.69877625 C7.50613841 93.69675392 7.09293644 95.40728693 4.56323242 98.5690918 C0.94936632 101.36643585 -1.26169447 101.32049423 -5.68359375 101.08984375 C-9.40020693 100.32699211 -10.94940879 98.66895297 -13.0625 95.6015625 C-14.24581343 91.372535 -14.21050441 87.14372171 -14.20776367 82.78540039 C-14.21112228 82.01402237 -14.2144809 81.24264435 -14.21794128 80.44789124 C-14.22741363 77.90665054 -14.22939241 75.36547598 -14.23046875 72.82421875 C-14.23368351 71.05211866 -14.23704775 69.28001884 -14.24055481 67.50791931 C-14.24653649 63.79669581 -14.24839566 60.08549556 -14.24780273 56.37426758 C-14.24770108 51.62525153 -14.26136151 46.87638486 -14.27857494 42.12740421 C-14.28970691 38.46849384 -14.29172159 34.80961947 -14.29119301 31.15069389 C-14.292371 29.40005414 -14.29678261 27.64941339 -14.30452538 25.89879036 C-14.31435104 23.44812745 -14.3114373 20.99778754 -14.30541992 18.54711914 C-14.31103943 17.82848694 -14.31665894 17.10985474 -14.32244873 16.3694458 C-14.28921508 11.0280039 -13.51114507 6.6903167 -10.44140625 2.26416016 C-7.08516678 -0.0814875 -3.95502787 -0.00959907 0 0 Z M6.9375 20.6015625 C6.9375 27.2015625 6.9375 33.8015625 6.9375 40.6015625 C17.93052826 41.25297905 17.93052826 41.25297905 27.9375 37.6015625 C30.38871397 33.92474155 30.76168762 30.87235287 29.9375 26.6015625 C27.24963353 23.09240349 25.26136416 21.31233469 20.9375 20.6015625 C16.26727236 20.46948593 11.61067059 20.5582924 6.9375 20.6015625 Z " fill="#FFFFFF" transform="translate(201.0625,371.3984375)"/>
<path d="M0 0 C2.46810594 2.1516821 3.74159986 3.68402403 4.37890625 6.9296875 C4.60432912 10.78369142 4.24527155 12.61574124 2.125 15.9375 C-1.36158203 19.3215355 -4.03592714 19.38966392 -8.73828125 19.359375 C-12.32520929 18.78943134 -13.86838894 16.79773951 -16 14 C-17.43304064 11.13391871 -17.30644155 9.18699217 -17 6 C-15.15602845 2.31205689 -13.84112479 0.44859989 -10.1875 -1.5 C-6.12765138 -2.136839 -3.77517685 -1.60794569 0 0 Z " fill="#FFFFFF" transform="translate(340,149)"/>
<path d="M0 0 C2.66173541 3.00298354 3.84055664 5.04333984 4.5 9 C3.86619108 12.80285351 2.37421663 14.99731426 0 18 C-3.45739557 19.72869779 -7.21975568 19.48966895 -11 19 C-13.87029869 17.20606332 -15.49131638 16.01736724 -17 13 C-17.57268722 6.01321586 -17.57268722 6.01321586 -15.375 2.125 C-10.34757448 -2.37322283 -6.13075975 -2.72478211 0 0 Z " fill="#FFFFFF" transform="translate(269,149)"/>
<path d="M0 0 C3.59020294 1.82999545 5.64586381 4.04174913 7.0625 7.875 C6.97961928 12.01903601 6.14602992 14.44563794 4 18 C0.0205113 20.52544475 -2.01394307 21.15041546 -6.6875 20.4375 C-12.05825243 18.10679612 -12.05825243 18.10679612 -14 15 C-14.79461934 10.91634754 -15.15599962 6.9027585 -12.9296875 3.23828125 C-9.13280991 -0.38223864 -4.93838323 -1.21741455 0 0 Z " fill="#FFFFFF" transform="translate(482,246)"/>
</svg>
