<?xml version="1.0" standalone="no"?>
<!DOCTYPE svg PUBLIC "-//W3C//DTD SVG 20010904//EN"
 "http://www.w3.org/TR/2001/REC-SVG-20010904/DTD/svg10.dtd">
<svg version="1.0" xmlns="http://www.w3.org/2000/svg"
 width="512.000000pt" height="512.000000pt" viewBox="0 0 512.000000 512.000000"
 preserveAspectRatio="xMidYMid meet">

<g transform="translate(0.000000,512.000000) scale(0.100000,-0.100000)"
fill="#000000" stroke="none">
<path d="M0 2560 l0 -2560 788 1 c701 0 781 2 734 15 -96 25 -187 96 -240 185
-49 81 -52 121 -52 616 l0 463 -413 0 c-490 0 -488 0 -577 88 -96 96 -90 37
-90 947 0 891 -4 845 76 934 26 29 65 58 96 72 53 24 54 24 481 27 l427 3 0
707 c0 605 2 716 15 767 36 136 142 243 277 279 47 13 -33 15 -734 15 l-788 1
0 -2560z"/>
<path d="M3620 5103 c26 -17 1207 -1240 1298 -1343 l52 -60 -2 -1703 -3 -1702
-31 -65 c-50 -106 -143 -185 -252 -215 -42 -12 -22 -13 196 -14 l242 -1 0
2560 0 2560 -762 0 c-709 -1 -761 -2 -738 -17z"/>
<path d="M1545 4906 c-38 -17 -90 -72 -104 -109 -8 -19 -11 -262 -11 -737 l0
-709 873 -3 c739 -3 877 -5 902 -18 61 -29 112 -70 138 -109 58 -87 58 -87 55
-937 -3 -720 -4 -782 -21 -818 -29 -66 -83 -123 -145 -153 l-57 -28 -872 -3
-873 -2 0 -465 c0 -303 4 -473 11 -492 14 -38 67 -92 106 -109 27 -12 282 -14
1556 -14 l1524 0 44 23 c29 16 54 40 74 72 l30 48 3 1599 2 1598 -634 0 c-348
0 -647 3 -665 6 -17 4 -42 18 -56 32 l-25 25 0 658 0 659 -912 0 c-742 -1
-919 -3 -943 -14z"/>
<path d="M3590 4295 l0 -555 536 0 537 0 -54 58 c-119 127 -1012 1052 -1015
1052 -2 0 -4 -250 -4 -555z"/>
<path d="M378 3121 l-33 -29 -3 -739 c-2 -406 0 -757 3 -780 4 -25 16 -51 32
-67 l26 -26 1368 0 1368 0 28 24 28 24 3 769 c2 565 -1 775 -9 796 -25 60 57
57 -1423 57 l-1356 0 -32 -29z m826 -786 c84 -209 160 -399 169 -422 l17 -43
-93 0 -92 0 -36 93 -35 92 -171 3 -171 2 -34 -92 -34 -93 -92 -3 -92 -3 21 53
c42 106 271 694 291 746 l20 53 90 -3 90 -3 152 -380z m771 363 c61 -20 121
-85 141 -154 41 -143 -22 -283 -151 -335 -16 -6 -94 -14 -172 -17 l-143 -5 0
-158 0 -159 -85 0 -85 0 0 426 0 427 228 -6 c144 -4 242 -10 267 -19z m467
-165 l3 -187 173 187 174 187 109 0 c60 0 109 -3 109 -7 0 -3 -70 -78 -156
-165 -101 -103 -153 -162 -148 -170 4 -7 74 -116 156 -242 82 -126 153 -237
159 -247 9 -18 4 -19 -99 -19 l-109 0 -107 183 c-58 100 -111 189 -116 197 -8
12 -23 2 -80 -55 l-70 -69 0 -128 0 -128 -85 0 -85 0 0 425 0 425 85 0 85 0 2
-187z"/>
<path d="M906 2372 c-27 -75 -51 -143 -54 -149 -3 -10 22 -13 107 -13 61 0
111 2 111 5 0 11 -102 280 -108 287 -4 4 -29 -54 -56 -130z"/>
<path d="M1650 2450 l0 -120 63 0 c168 0 237 36 237 123 0 89 -46 117 -195
117 l-105 0 0 -120z"/>
</g>
</svg>
