<svg xmlns="http://www.w3.org/2000/svg" width="640" height="640" viewBox="0 0 640 640" version="1.1"><path d="M 85.738 0.931 C 76.889 2.164, 77.689 -7.382, 77.296 101.713 C 77.104 154.946, 76.710 200.796, 76.420 203.603 L 75.893 208.706 57.696 209.262 C 47.688 209.567, 38.333 210.271, 36.906 210.825 C 31.345 212.984, 31.500 209.852, 31.500 320 C 31.500 430.148, 31.345 427.016, 36.906 429.175 C 38.333 429.729, 47.688 430.433, 57.696 430.738 L 75.893 431.294 76.420 436.397 C 76.710 439.204, 77.104 485.054, 77.296 538.287 C 77.690 647.732, 76.809 637.763, 86.210 639.101 C 93.122 640.085, 546.878 640.085, 553.790 639.101 C 563.200 637.762, 562.315 647.864, 562.711 537.284 C 562.903 483.503, 563.289 437.658, 563.568 435.407 L 564.075 431.314 583.186 430.675 C 605.464 429.929, 606.435 429.596, 607.686 422.269 C 608.749 416.043, 608.749 223.957, 607.686 217.731 C 606.435 210.404, 605.464 210.071, 583.186 209.325 L 564.075 208.686 563.568 204.593 C 563.289 202.342, 562.903 156.497, 562.711 102.716 C 562.315 -7.864, 563.200 2.238, 553.790 0.899 C 547.290 -0.026, 92.382 0.005, 85.738 0.931 M 98 114 L 98 208 320 208 L 542 208 542 114 L 542 20 320 20 L 98 20 98 114 M 53 320 L 53 410 320 410 L 587 410 587 320 L 587 230 320 230 L 53 230 53 320 M 217.400 266.682 C 216.795 267.132, 215.770 268.505, 215.123 269.733 C 213.536 272.747, 212.485 323.492, 213.472 349.411 C 214.209 368.750, 214.301 369.392, 216.691 371.782 L 219.151 374.242 240.326 373.741 C 270.710 373.022, 279.710 370.344, 290.662 358.763 C 300.598 348.258, 303.162 339.802, 303.125 317.656 C 303.105 305.412, 302.784 302.491, 300.901 297.423 C 295.031 281.618, 283.406 271.059, 268.500 267.994 C 262.186 266.696, 218.878 265.584, 217.400 266.682 M 325.389 266.972 C 324.228 267.445, 322.881 268.658, 322.396 269.666 C 321.373 271.794, 320.561 356.987, 321.491 364.638 C 322.623 373.947, 320.973 373.464, 352.668 373.759 C 386.218 374.072, 385.504 374.257, 385.492 365.250 C 385.487 361.561, 384.966 358.565, 384.194 357.792 C 383.252 356.847, 377.673 356.417, 363.452 356.191 L 344 355.881 344 341.441 L 344 327 348.250 326.886 C 350.587 326.823, 358.349 326.486, 365.499 326.136 L 378.497 325.500 379.392 321.245 C 379.929 318.688, 379.915 315.695, 379.357 313.745 L 378.427 310.500 361.214 310.226 L 344 309.953 344 296.976 L 344 284 361.750 283.985 C 384.576 283.966, 384.500 284, 384.500 273.970 L 384.500 266.500 356 266.305 C 340.325 266.198, 326.550 266.498, 325.389 266.972 M 407.441 267.419 C 405.564 268.792, 405.500 270.509, 405.500 319.869 C 405.500 360.349, 405.768 371.169, 406.797 372.200 C 408.515 373.921, 433.868 374.492, 448.478 373.139 C 457.268 372.324, 460.451 371.560, 465.586 369.032 C 479.468 362.198, 485.287 349.761, 481.928 334.100 C 480.417 327.056, 476.059 321.498, 469.540 318.300 L 464.123 315.644 468.486 311.804 C 474.073 306.885, 476.538 300.699, 476.386 291.977 C 476.141 277.881, 467.400 269.494, 450.392 267.036 C 439.347 265.439, 409.788 265.703, 407.441 267.419 M 427 296.636 L 427 310.273 436.684 309.766 L 446.368 309.259 450.184 305.168 C 453.537 301.574, 454 300.479, 454 296.144 C 454 287.203, 447.549 283.017, 433.750 283.006 L 427 283 427 296.636 M 237 320 L 237 356.301 248.087 355.627 C 264.940 354.604, 270.644 351.432, 276.429 339.869 C 279.963 332.806, 280 332.599, 280 320 C 280 307.401, 279.963 307.194, 276.429 300.131 C 270.644 288.568, 264.940 285.396, 248.087 284.373 L 237 283.699 237 320 M 427 342.150 L 427 357.300 438.061 356.716 C 451.954 355.983, 455.655 354.343, 458.420 347.692 C 460.105 343.638, 460.186 342.563, 459.079 338.870 C 456.441 330.063, 450.447 327.015, 435.750 327.006 L 427 327 427 342.150 M 172.384 350.434 C 165.967 353.228, 164.973 366.701, 170.759 372.486 C 172.924 374.651, 174.167 375, 179.713 375 C 185.498 375, 186.451 374.703, 189.077 372.077 C 191.659 369.494, 192 368.453, 192 363.142 C 192 359.836, 191.553 355.954, 191.006 354.517 C 189.159 349.657, 179.191 347.472, 172.384 350.434 M 98 526 L 98 620 320 620 L 542 620 542 526 L 542 432 320 432 L 98 432 98 526" stroke="none" fill="#fffcfc" fill-rule="evenodd"/><path d="" stroke="none" fill="#fcfcfc" fill-rule="evenodd"/></svg>