<?xml version="1.0" standalone="no"?>
<!DOCTYPE svg PUBLIC "-//W3C//DTD SVG 20010904//EN"
 "http://www.w3.org/TR/2001/REC-SVG-20010904/DTD/svg10.dtd">
<svg version="1.0" xmlns="http://www.w3.org/2000/svg"
 width="512.000000pt" height="512.000000pt" viewBox="0 0 512.000000 512.000000"
 preserveAspectRatio="xMidYMid meet">

<g transform="translate(0.000000,512.000000) scale(0.100000,-0.100000)"
fill="#000000" stroke="none">
<path d="M649 5101 l-24 -19 -5 -819 -5 -818 -145 -2 c-175 -3 -186 -5 -205
-43 -23 -44 -23 -1636 0 -1680 19 -38 30 -40 205 -43 l145 -2 5 -818 5 -819
24 -19 c23 -19 67 -19 1911 -19 1844 0 1888 0 1911 19 l24 19 5 819 5 818 145
2 c80 2 155 5 167 8 54 13 53 -3 53 875 0 878 1 862 -53 875 -12 3 -87 6 -167
8 l-145 2 -5 818 -5 819 -24 19 c-23 19 -67 19 -1911 19 -1844 0 -1888 0
-1911 -19z m3691 -896 l0 -755 -1780 0 -1780 0 0 755 0 755 1780 0 1780 0 0
-755z m360 -1645 l0 -720 -2140 0 -2140 0 0 720 0 720 2140 0 2140 0 0 -720z
m-360 -1645 l0 -755 -1780 0 -1780 0 0 755 0 755 1780 0 1780 0 0 -755z"/>
<path d="M1726 2969 c-14 -21 -16 -70 -16 -409 0 -333 2 -389 16 -408 15 -21
21 -22 172 -22 233 0 343 31 423 117 82 88 104 157 104 323 -1 105 -4 134 -23
180 -30 75 -73 132 -129 170 -82 53 -129 63 -339 68 -191 4 -192 4 -208 -19z
m410 -154 c37 -24 56 -45 79 -90 28 -54 30 -66 30 -165 0 -99 -2 -111 -30
-165 -23 -45 -42 -66 -79 -89 -43 -27 -59 -31 -147 -34 l-99 -4 0 292 0 292
98 -4 c89 -3 103 -6 148 -33z"/>
<path d="M2586 2968 c-14 -19 -16 -74 -16 -408 0 -333 2 -389 16 -408 15 -22
19 -22 250 -22 264 0 249 -5 248 78 -1 26 -7 48 -15 53 -8 5 -83 9 -166 9
l-153 0 0 120 0 119 137 3 137 3 9 35 c5 22 4 47 -2 63 l-11 27 -135 0 -135 0
0 105 0 105 154 0 c178 0 179 1 174 82 l-3 53 -237 3 c-235 2 -237 2 -252 -20z"/>
<path d="M3250 2971 c-6 -13 -10 -162 -10 -415 0 -355 2 -396 17 -411 14 -15
39 -16 202 -13 144 4 196 8 231 22 114 43 170 118 170 227 -1 104 -42 170
-126 201 l-33 12 34 23 c49 33 75 89 75 160 0 68 -21 115 -71 155 -55 44 -132
58 -316 58 -150 0 -163 -1 -173 -19z m330 -129 c44 -22 62 -56 56 -107 -3 -28
-14 -48 -36 -67 -28 -26 -37 -28 -110 -28 l-80 0 0 110 0 110 68 0 c44 0 79
-6 102 -18z m5 -342 c80 -18 119 -104 81 -179 -21 -40 -59 -54 -163 -59 l-93
-4 0 126 0 126 68 0 c37 0 85 -5 107 -10z"/>
<path d="M1395 2320 c-42 -13 -55 -36 -55 -97 0 -70 29 -103 89 -103 61 0 88
14 101 55 14 43 5 107 -18 128 -22 20 -80 28 -117 17z"/>
</g>
</svg>
