<svg xmlns="http://www.w3.org/2000/svg" width="640" height="640" viewBox="0 0 640 640" version="1.1"><path d="M 199.443 0.889 C 189.446 1.441, 187.734 1.831, 181.579 4.957 C 172.128 9.758, 164.235 18, 158.551 29.006 L 154 37.818 154 78.244 C 154 100.479, 153.701 141.695, 153.337 169.836 L 152.673 221 110.587 221.081 C 56.686 221.186, 46.138 221.765, 39.500 224.987 C 32.554 228.359, 25.794 235.474, 21.574 243.854 L 18 250.950 18.055 331.725 C 18.110 413.993, 18.970 450.340, 21.029 457.500 C 22.488 462.576, 33.583 473.741, 40.802 477.400 L 45.934 480 97.217 480.014 C 125.423 480.021, 149.441 480.280, 150.590 480.589 C 152.671 481.147, 152.684 481.413, 153.305 539.325 C 153.982 602.417, 154.156 604.444, 159.728 614 C 164.086 621.475, 173.489 630.484, 181.118 634.493 C 186.963 637.564, 189.630 638.304, 197.788 639.117 C 203.795 639.716, 278.836 639.963, 394.500 639.766 C 568.608 639.469, 581.903 639.328, 587.351 637.710 C 599.391 634.135, 611.055 623.587, 617.302 610.624 L 620.735 603.500 621.337 390.339 L 621.940 177.179 609.261 163.839 C 594.528 148.340, 512.184 62.699, 477.725 27.038 C 464.725 13.584, 453.056 2.124, 451.794 1.572 C 449.256 0.459, 218.511 -0.165, 199.443 0.889 M 216 25.989 C 200.841 26.454, 194.584 27.020, 191.984 28.160 C 187.525 30.116, 182.467 35.841, 180.886 40.723 C 179.972 43.543, 179.559 66.857, 179.255 132.750 L 178.848 221 286.949 221 L 395.050 221 401.775 224.409 C 411.610 229.395, 416.138 233.772, 420.872 242.871 L 425 250.805 424.994 346.653 C 424.991 404.087, 424.598 444.884, 424.014 448.449 C 422.157 459.793, 414.223 471.295, 405.014 475.993 C 397.804 479.671, 387.694 480, 281.776 480 L 179 480 179.002 506.250 C 179.002 520.688, 179.301 547.733, 179.665 566.351 L 180.328 600.203 183.700 604.240 C 185.555 606.460, 188.615 609.502, 190.500 611 L 193.927 613.724 385.714 614.221 L 577.500 614.719 582 612.453 C 586.674 610.099, 589.977 606.969, 594.089 601 L 596.500 597.500 596.791 397.914 L 597.083 198.328 514.585 197.697 L 432.087 197.066 428.571 193.283 L 425.054 189.500 425.027 107.250 L 425 25 330.750 25.180 C 278.913 25.278, 227.275 25.643, 216 25.989 M 449.673 37.409 C 449.303 38.374, 449 69.052, 449 105.582 L 449 172 515.050 172 C 571.051 172, 580.978 171.789, 580.300 170.615 C 579.392 169.043, 497.156 83.376, 468.923 54.593 C 454.103 39.482, 450.211 36.008, 449.673 37.409 M 47.087 251.039 C 45.121 253.753, 43.920 256.863, 43.507 260.311 C 43.165 263.165, 43.024 306.316, 43.193 356.202 L 43.500 446.904 47.453 450.952 L 51.406 455 170.453 454.872 C 235.929 454.801, 312.997 454.464, 341.716 454.122 C 399.867 453.429, 396.266 453.923, 398.089 446.391 C 399.425 440.868, 400.281 330.270, 399.313 288.272 L 398.500 253.044 395.727 250.272 L 392.955 247.500 221.500 247.228 L 50.045 246.956 47.087 251.039 M 156 353.073 L 156 407 167 407 L 178 407 178 387.161 L 178 367.322 196.081 366.293 C 213.729 365.290, 214.322 365.184, 220.797 361.883 C 229.464 357.464, 234.195 351.005, 236.564 340.357 C 238.484 331.727, 237.960 325.937, 234.587 318.500 C 231.492 311.675, 228.096 307.914, 222.064 304.631 C 215.902 301.277, 207.475 300.347, 176.750 299.630 L 156 299.146 156 353.073 M 115 353.534 L 115 407.068 125.750 406.784 L 136.500 406.500 136.759 353.250 L 137.018 300 126.009 300 L 115 300 115 353.534 M 274.268 301.219 C 273.702 301.923, 266.477 319.825, 258.212 341 C 237.902 393.032, 234 403.292, 234 404.668 C 234 406.047, 244.173 407.310, 251.387 406.827 L 256.274 406.500 260.382 394.750 L 264.490 383 285.671 383 L 306.852 383 310.926 393.548 C 313.167 399.349, 315 404.524, 315 405.048 C 315 405.598, 320.066 406, 327 406 C 333.600 406, 338.998 405.663, 338.996 405.250 C 338.993 404.837, 329.617 381.100, 318.160 352.500 L 297.329 300.500 286.313 300.219 C 278.276 300.013, 275.019 300.284, 274.268 301.219 M 178 333.769 L 178 348.770 184.750 348.325 C 202.611 347.147, 209.529 345.175, 212.683 340.361 C 214.911 336.961, 214.911 329.039, 212.683 325.639 C 209.513 320.801, 205.673 319.645, 191.250 319.188 L 178 318.768 178 333.769 M 284.621 328 C 283.856 330.006, 276.273 351.155, 273.954 357.750 L 272.108 363 285.535 363 L 298.962 363 295.801 354.250 C 289.158 335.861, 285.183 326.527, 284.621 328" stroke="none" fill="#fffcfc" fill-rule="evenodd"/><path d="" stroke="none" fill="#fcfcfc" fill-rule="evenodd"/></svg>