<?xml version="1.0" encoding="UTF-8"?>
<svg version="1.1" xmlns="http://www.w3.org/2000/svg" width="640" height="640">
<path d="M0 0 C2.27326485 -0.00135729 4.54652948 -0.00313906 6.8197937 -0.00531006 C12.95821133 -0.00984566 19.09661204 -0.00811076 25.23502994 -0.00493097 C31.68086207 -0.00238698 38.12669283 -0.0047506 44.57252502 -0.00631714 C56.08707615 -0.00824911 67.60161867 -0.0051546 79.11616845 -0.0000578 C89.52715645 0.00440809 99.93813329 0.00363379 110.34912109 -0.00097656 C122.47721267 -0.0063449 134.6052955 -0.00831108 146.73338848 -0.0053643 C153.13936923 -0.00381135 159.54534231 -0.00358068 165.95132256 -0.00690079 C171.97687793 -0.00980594 178.00241241 -0.00775553 184.02796555 -0.00200653 C186.2292674 -0.00069299 188.43057105 -0.00104891 190.63187218 -0.0032692 C209.71870443 -0.02073421 209.71870443 -0.02073421 218.9200592 0.4536438 C220.62382013 0.53992381 220.62382013 0.53992381 222.36200047 0.62794685 C227.42743466 1.5044279 229.97973828 4.39497087 233.26000977 8.12939453 C234.88982385 9.72890842 236.52701307 11.32093027 238.17016602 12.90673828 C239.89022803 14.62417625 241.60764052 16.34427154 243.32250977 18.06689453 C244.18166992 18.9221875 245.04083008 19.77748047 245.92602539 20.65869141 C249.64268505 24.38102969 253.30134988 28.10678466 256.72485352 32.10205078 C261.12197353 37.22055823 265.95758926 41.89490077 270.76000977 46.62939453 C276.18075739 51.97346963 281.49353002 57.31004864 286.44555664 63.09228516 C290.18665784 67.29246659 294.2545152 71.18368347 298.26000977 75.12939453 C303.53055543 80.32127533 308.67430834 85.52022167 313.49047852 91.13720703 C316.89989244 94.97562006 320.60064291 98.53142645 324.26000977 102.12939453 C329.19934803 106.98585799 333.97152117 111.8796123 338.48657227 117.13330078 C341.74191097 120.79734941 345.26452924 124.19644496 348.76000977 127.62939453 C353.55928203 132.34281219 358.17514628 137.10983034 362.56274414 142.20947266 C365.3190492 145.32736434 368.28752019 148.21950102 371.26000977 151.12939453 C375.5741974 155.39374645 379.75197977 159.68477889 383.67016602 164.32080078 C386.15572123 167.14834885 388.85774489 169.7495977 391.56079102 172.36767578 C395.34131207 176.28725048 395.50950582 178.77957787 395.50724792 184.08500671 C395.509665 184.8006102 395.51208207 185.51621369 395.51457238 186.25350213 C395.52024157 188.67015071 395.51152324 191.08653684 395.50292969 193.50317383 C395.50396428 195.24617106 395.50586246 196.98916796 395.5085535 198.73216343 C395.51335017 203.53769141 395.50547766 208.34312928 395.49553967 213.14864635 C395.48695852 218.328325 395.48986591 223.50799927 395.4911499 228.68768311 C395.49167379 241.21316742 395.47310656 253.73859724 395.45293951 266.2640624 C395.44392321 272.16368026 395.43711965 278.06330052 395.4302063 283.96292114 C395.4066113 303.60045137 395.37955023 323.23796883 395.33946228 342.87547302 C395.28481663 369.92081757 395.25369875 396.96589342 395.26789796 424.01129568 C395.27887388 445.32495145 395.2652427 466.63846697 395.22672749 487.95209217 C395.20576175 499.9402523 395.1964007 511.928183 395.21615601 523.91635132 C395.23291592 534.13304029 395.22586003 544.34936497 395.18796313 554.56600344 C395.16936118 559.77986871 395.16200262 564.99310175 395.18526459 570.20696259 C395.20633858 574.987956 395.19486242 579.76775688 395.15815318 584.54864562 C395.1505351 586.2728779 395.15456768 587.99721214 395.17182672 589.72137487 C395.31320027 604.98825705 391.19906942 614.77002513 380.37719727 626.04736328 C379.67852539 626.73443359 378.97985352 627.42150391 378.26000977 628.12939453 C377.74696289 628.64115234 377.23391602 629.15291016 376.70532227 629.68017578 C363.28313131 641.92697713 344.48631729 640.28297647 327.57260132 640.2631073 C326.03876936 640.26498021 324.50493787 640.26728281 322.97110713 640.26997262 C318.79591597 640.2760372 314.62074499 640.27596342 310.44555044 640.27477825 C305.9274576 640.27457289 301.409371 640.28010561 296.89128113 640.28483582 C288.05654262 640.29311221 279.22181079 640.29588924 270.38706873 640.29644819 C263.20453356 640.29692454 256.02200058 640.29898516 248.83946609 640.30214882 C228.45274398 640.31094512 208.06602712 640.31556949 187.67930309 640.31481835 C186.58219606 640.31477839 185.48508903 640.31473843 184.35473633 640.31469727 C183.25628299 640.31465638 182.15782966 640.3146155 181.02608986 640.31457338 C163.21009745 640.31416662 145.39412614 640.32374656 127.57813983 640.33783563 C109.26239617 640.35220519 90.94666281 640.35910558 72.63091338 640.35824186 C62.35678122 640.35791022 52.08267122 640.36064325 41.80854416 640.37141991 C33.06563593 640.38053225 24.32275992 640.3826939 15.57984899 640.37591048 C11.12265602 640.37264976 6.66552485 640.37257259 2.20833778 640.38126373 C-1.87750309 640.38914874 -5.96323335 640.38767698 -10.0490716 640.3789796 C-11.52126654 640.37744908 -12.99346982 640.37924375 -14.46565492 640.38483968 C-32.11933678 640.4474605 -46.29050901 638.20211136 -59.48217773 625.62548828 C-68.95782029 615.14982116 -72.69100837 604.31213673 -73.29455376 590.50055599 C-73.33668662 589.5687652 -73.37881949 588.63697441 -73.4222291 587.67694753 C-73.80985811 578.51285266 -73.88008922 569.36166207 -73.86697388 560.19081116 C-73.86813028 558.38764443 -73.86972126 556.58447794 -73.87170112 554.78131193 C-73.87582605 549.89092285 -73.87383481 545.00055361 -73.8707149 540.11016452 C-73.86843158 534.80602638 -73.87195569 529.5018914 -73.87469482 524.19775391 C-73.87912707 513.81176867 -73.87818543 503.42579069 -73.87528218 493.03980518 C-73.87300927 484.54902701 -73.87272378 476.05825085 -73.873806 467.56747246 C-73.87395923 466.3513205 -73.87411247 465.13516855 -73.87427034 463.88216351 C-73.87459016 461.40940146 -73.87491437 458.93663942 -73.87524293 456.46387737 C-73.87809259 433.2815503 -73.87482336 410.09922717 -73.86944257 386.91690075 C-73.86501616 367.24481007 -73.86571659 347.57272533 -73.87036133 327.90063477 C-73.87578836 304.90556648 -73.87777512 281.91050171 -73.87474906 258.91543287 C-73.87443065 256.43024441 -73.87411628 253.94505594 -73.873806 251.45986748 C-73.87365172 250.23820365 -73.87349745 249.01653982 -73.8733385 247.75785588 C-73.87249418 239.36494259 -73.87392711 230.97203166 -73.87628555 222.57911873 C-73.88213445 198.18098803 -73.86324823 173.78324823 -73.78453195 149.38523024 C-73.74737861 137.33615709 -73.74331491 125.2877312 -73.77270273 113.23863434 C-73.79232174 104.42748794 -73.78294185 95.61665792 -73.75253197 86.80554391 C-73.73577116 81.64370991 -73.73209839 76.48272475 -73.76344132 71.32094014 C-73.79206932 66.56308905 -73.78316097 61.80675594 -73.74601522 57.04897757 C-73.73903937 55.32558555 -73.74539655 53.60207275 -73.7669681 51.87880163 C-73.95610873 35.65596698 -68.67670213 24.16241924 -57.31811523 12.43798828 C-53.43958387 8.96493975 -49.41058608 6.40262474 -44.73999023 4.12939453 C-44.10834961 3.80326172 -43.47670898 3.47712891 -42.82592773 3.14111328 C-30.48671707 -2.3984047 -13.23614321 -0.01333682 0 0 Z M7.0977025 25.48092198 C4.82250298 25.5080217 2.54729163 25.5317656 0.27204514 25.55454826 C-3.92276669 25.5972481 -8.11718584 25.65623797 -12.31176758 25.7175293 C-13.53275021 25.72888727 -14.75373283 25.74024525 -16.01171494 25.7519474 C-27.86326168 25.77810396 -27.86326168 25.77810396 -38.61499023 30.04736328 C-39.31624023 30.79630859 -40.01749023 31.54525391 -40.73999023 32.31689453 C-41.46186523 33.05294922 -42.18374023 33.78900391 -42.92749023 34.54736328 C-47.00179648 40.35149352 -47.11619712 46.94371467 -47.35705376 53.80724239 C-47.3946749 54.72811535 -47.43229605 55.64898831 -47.47105723 56.59776651 C-47.832593 66.1595732 -47.87968144 75.71646545 -47.86697388 85.28382874 C-47.86812983 87.2184718 -47.86972051 89.15311465 -47.87170112 91.08775705 C-47.87583076 96.34022747 -47.87383276 101.59267944 -47.8707149 106.84514987 C-47.86843418 112.53718933 -47.87195402 118.2292258 -47.87469482 123.92126465 C-47.87912642 135.05785011 -47.87818671 146.1944288 -47.87528218 157.33101452 C-47.87301345 166.41132975 -47.87272198 175.49164311 -47.873806 184.57195854 C-47.87395923 185.87008647 -47.87411247 187.16821439 -47.87427034 188.50567953 C-47.87459012 191.14423844 -47.87491434 193.78279735 -47.87524293 196.42135625 C-47.87801016 220.43740901 -47.87514762 244.45345824 -47.86990034 268.46951042 C-47.86517721 290.25124134 -47.86556132 312.0329664 -47.87036133 333.81469727 C-47.87575958 358.39230183 -47.87779507 382.96990311 -47.87474906 407.54750818 C-47.87443059 410.18767734 -47.87411622 412.82784651 -47.873806 415.46801567 C-47.87365172 416.76633058 -47.87349745 418.06464548 -47.8733385 419.40230327 C-47.87248588 428.42133577 -47.87394746 437.4403661 -47.87628555 446.45939827 C-47.88185906 471.88022993 -47.86682217 497.30064648 -47.78000009 522.7213499 C-47.7473127 532.77491244 -47.73959794 542.82730863 -47.79362825 552.8807991 C-47.82422723 558.7568352 -47.82773559 564.63234209 -47.80434509 570.5084147 C-47.79289191 573.66915921 -47.80038995 576.82774205 -47.83888078 579.98832333 C-48.50900584 594.17101213 -48.50900584 594.17101213 -42.48660278 606.36756897 C-40.20176341 608.41422548 -40.20176341 608.41422548 -37.73999023 610.12939453 C-37.00088112 610.81448398 -36.26177201 611.49957344 -35.50026566 612.20542318 C-32.11263696 614.56667326 -30.25615716 614.63708481 -26.1556139 614.65396309 C-25.17895077 614.66611508 -25.17895077 614.66611508 -24.18255708 614.67851257 C-21.99735968 614.70081855 -19.81317363 614.69471322 -17.62788391 614.68875122 C-16.04676051 614.69892214 -14.46564745 614.71082445 -12.88454884 614.72431076 C-8.53689479 614.75626647 -4.18950199 614.76326136 0.15825546 614.76615429 C4.84627441 614.77354715 9.53415378 614.80379673 14.22209167 614.83103943 C23.40830068 614.88058076 32.59445098 614.90821176 41.7807683 614.92762931 C49.24817573 614.943648 56.71552963 614.96668174 64.18290138 614.99471664 C65.24507542 614.99868238 66.30724946 615.00264812 67.40161059 615.00673404 C69.55935362 615.01479483 71.71709664 615.0228601 73.87483964 615.03092979 C94.12114894 615.10558394 114.36746011 615.15417896 134.61386172 615.19496547 C153.1335417 615.23309163 171.65292457 615.30409888 190.17243602 615.39065875 C209.18619145 615.4792267 228.1999049 615.54545715 247.21382171 615.58757389 C257.88942184 615.61161891 268.56481785 615.64452888 279.24030113 615.70084 C288.33082345 615.74854782 297.42110926 615.7751611 306.51176181 615.77462538 C311.14910004 615.77493012 315.78587933 615.78486875 320.42308807 615.82108498 C324.6716398 615.85400937 328.91928538 615.85891696 333.167922 615.84186922 C334.7016147 615.8405645 336.23535764 615.84934597 337.76891907 615.86945392 C346.98263711 615.98352232 353.899395 615.13502786 361.26000977 609.12939453 C363.7225151 606.79626437 363.7225151 606.79626437 365.32250977 604.37939453 C365.87036133 603.62142578 366.41821289 602.86345703 366.98266602 602.08251953 C369.11283808 598.8253757 369.40127056 596.8910746 369.46378231 593.01175213 C369.49322542 591.37926645 369.49322542 591.37926645 369.52326334 589.71380126 C369.53967075 588.5109414 369.55607817 587.30808153 369.57298279 586.06877136 C369.60382428 584.16955702 369.60382428 584.16955702 369.63528883 582.23197472 C369.69130189 578.71940573 369.7399999 575.20677033 369.78659542 571.69406499 C369.81658585 569.45264119 369.84815925 567.21124427 369.88007247 564.96984708 C370.37412826 529.89464712 370.39274449 494.82042704 370.36354849 459.74242811 C370.35617945 450.64165682 370.35487888 441.54088694 370.35375183 432.44011309 C370.35159512 416.22740671 370.34502994 400.01470553 370.33544922 383.80200195 C370.32618539 368.10864283 370.31914925 352.41528515 370.31494141 336.72192383 C370.31467868 335.74485677 370.31441596 334.76778972 370.31414527 333.76111457 C370.31283968 328.85655136 370.3115761 323.95198814 370.31033337 319.04742491 C370.30006675 278.74141115 370.28254442 238.4354032 370.26000977 198.12939453 C369.62320911 198.12516259 368.98640846 198.12093065 368.33031082 198.11657047 C352.64536238 198.01207048 336.96044989 197.90328608 321.27556229 197.79005527 C313.68966127 197.7353893 306.1037556 197.68207614 298.51782227 197.63208008 C282.81270349 197.52792267 267.10801612 197.40746131 251.40343475 197.23949623 C244.59341434 197.16746119 237.78406399 197.11481316 230.97369766 197.09447956 C227.53190785 197.07903585 224.09073983 197.0405893 220.64925385 196.99326897 C219.15584281 196.97752785 217.66228433 196.97182769 216.16880035 196.97729683 C214.19877552 196.98339598 212.22874103 196.95016921 210.2590332 196.91430664 C209.20504333 196.90741318 208.15105347 196.90051971 207.06512451 196.89341736 C203.79039541 196.00148672 202.21682831 194.58749108 200.20475829 191.86708331 C198.62847301 188.9678004 198.62822766 186.4088325 198.62077332 183.14382935 C198.61241764 182.46491666 198.60406196 181.78600397 198.59545308 181.08651817 C198.57360387 178.82440068 198.58710344 176.56391941 198.60058594 174.30175781 C198.5921293 172.67526522 198.58148362 171.04878276 198.56881714 169.4223175 C198.54068753 165.01564711 198.54313938 160.60946376 198.55111098 156.20273066 C198.5542372 151.59421779 198.52919832 146.98585972 198.50715637 142.37741089 C198.46971048 133.65463014 198.45756806 124.9320053 198.45453197 116.2091521 C198.44984173 106.27684146 198.41691953 96.34468704 198.38163412 86.41244531 C198.30969459 65.98477948 198.27318203 45.55717723 198.26000977 25.12939453 C179.38985678 25.10553882 160.51970703 25.08816701 141.64954185 25.07758236 C132.87857925 25.07252694 124.10762636 25.06566866 115.33666992 25.05395508 C79.25553348 25.00693702 43.17657767 25.0327907 7.0977025 25.48092198 Z M223.26000977 36.12939453 C222.29480902 43.38939056 222.12373273 50.49083122 222.14648438 57.80932617 C222.14636384 59.06925857 222.14624331 60.32919096 222.14611912 61.62730312 C222.14673894 65.01015328 222.15165614 68.39294083 222.15872955 71.77577972 C222.16445929 74.95969032 222.16469456 78.14359952 222.16540527 81.32751465 C222.17063548 90.61564597 222.18459674 99.90377071 222.19750977 109.19189453 C222.21813477 129.96126953 222.23875977 150.73064453 222.26000977 172.12939453 C265.82000977 172.12939453 309.38000977 172.12939453 354.26000977 172.12939453 C352.28000977 169.81939453 350.30000977 167.50939453 348.26000977 165.12939453 C347.65995117 164.42492187 347.05989258 163.72044922 346.44165039 162.99462891 C342.10947796 157.96354005 337.49519226 153.27986893 332.76000977 148.62939453 C327.99143202 143.94612229 323.4102501 139.20973101 319.05102539 134.14306641 C315.78809977 130.47449899 312.26152264 127.06826854 308.76000977 123.62939453 C304.64727885 119.59023662 300.57908432 115.56802029 296.82250977 111.19189453 C292.71695822 106.42007063 288.24408887 102.0426351 283.76000977 97.62939453 C274.66219545 88.67530556 274.66219545 88.67530556 270.82250977 84.19189453 C266.41724489 79.06009352 261.57338861 74.37469163 256.76000977 69.62939453 C251.29901606 64.24564261 245.93466506 58.87061876 240.94458008 53.04541016 C237.90900235 49.59277044 234.64423475 46.36929605 231.38500977 43.12939453 C230.70954102 42.45005859 230.03407227 41.77072266 229.33813477 41.07080078 C228.37520508 40.10980469 228.37520508 40.10980469 227.39282227 39.12939453 C226.81419434 38.55189453 226.23556641 37.97439453 225.6394043 37.37939453 C224.44676065 36.01747838 224.44676065 36.01747838 223.26000977 36.12939453 Z " fill="#FFFFFF" transform="translate(226.739990234375,-0.12939453125)"/>
</svg>
