<svg xmlns="http://www.w3.org/2000/svg" width="640" height="640" viewBox="0 0 640 640" version="1.1"><path d="M 199.443 0.889 C 189.446 1.441, 187.734 1.831, 181.579 4.957 C 172.031 9.807, 164.250 17.980, 158.359 29.347 L 153.615 38.500 153.557 317.500 C 153.503 582.436, 153.590 596.826, 155.287 602.975 C 157.618 611.423, 161.014 617.103, 168.255 624.668 C 176.959 633.760, 185.381 637.881, 197.788 639.117 C 203.795 639.716, 278.836 639.963, 394.500 639.766 C 568.608 639.469, 581.903 639.328, 587.351 637.710 C 599.391 634.135, 611.055 623.587, 617.302 610.624 L 620.735 603.500 621.337 390.339 L 621.940 177.179 609.261 163.839 C 594.528 148.340, 512.184 62.699, 477.725 27.038 C 464.725 13.584, 453.056 2.124, 451.794 1.572 C 449.256 0.459, 218.511 -0.165, 199.443 0.889 M 216 25.989 C 200.841 26.454, 194.584 27.020, 191.984 28.160 C 187.556 30.103, 182.493 35.807, 180.835 40.723 C 179.822 43.727, 179.488 92.077, 179.205 277 C 179.009 404.875, 179.161 529.884, 179.543 554.798 L 180.238 600.096 183.655 604.186 C 185.535 606.436, 188.615 609.502, 190.500 611 L 193.927 613.724 385.714 614.221 L 577.500 614.719 582 612.453 C 586.674 610.099, 589.977 606.969, 594.089 601 L 596.500 597.500 596.791 397.914 L 597.083 198.328 514.585 197.697 L 432.087 197.066 428.571 193.283 L 425.054 189.500 425.027 107.250 L 425 25 330.750 25.180 C 278.913 25.278, 227.275 25.643, 216 25.989 M 449.673 37.409 C 449.303 38.374, 449 69.052, 449 105.582 L 449 172 515.050 172 C 571.051 172, 580.978 171.789, 580.300 170.615 C 579.392 169.043, 497.156 83.376, 468.923 54.593 C 454.103 39.482, 450.211 36.008, 449.673 37.409" stroke="none" fill="#fffcfc" fill-rule="evenodd"/><path d="" stroke="none" fill="#fcfcfc" fill-rule="evenodd"/></svg>